<?xml version="1.0" encoding="UTF-8"?>
<svg xmlns="http://www.w3.org/2000/svg" xmlns:xlink="http://www.w3.org/1999/xlink" viewBox="0 0 22 22" width="22px" height="22px">
<g id="surface157191484">
<path style=" stroke:none;fill-rule:nonzero;fill:#023E8A;fill-opacity:1;" d="M 9.394531 2.75 C 5.734375 2.75 2.75 5.734375 2.75 9.394531 C 2.75 13.058594 5.734375 16.042969 9.394531 16.042969 C 10.980469 16.042969 12.4375 15.480469 13.578125 14.550781 L 18.078125 19.046875 C 18.25 19.226562 18.503906 19.300781 18.746094 19.238281 C 18.988281 19.175781 19.175781 18.988281 19.238281 18.746094 C 19.300781 18.503906 19.226562 18.25 19.046875 18.078125 L 14.550781 13.578125 C 15.480469 12.4375 16.042969 10.980469 16.042969 9.394531 C 16.042969 5.734375 13.058594 2.75 9.394531 2.75 Z M 9.394531 4.125 C 12.316406 4.125 14.667969 6.476562 14.667969 9.394531 C 14.667969 10.816406 14.105469 12.101562 13.195312 13.050781 C 13.140625 13.089844 13.089844 13.140625 13.050781 13.195312 C 12.101562 14.105469 10.816406 14.667969 9.394531 14.667969 C 6.476562 14.667969 4.125 12.316406 4.125 9.394531 C 4.125 6.476562 6.476562 4.125 9.394531 4.125 Z M 9.394531 4.125 "/>
</g>
</svg>
