<svg width="64" height="64" viewBox="0 0 74 74" fill="none" xmlns="http://www.w3.org/2000/svg">
<rect width="74" height="74" rx="37" fill="#CCD8E8"/>
<g filter="url(#filter0_d_399_3363)">
<path d="M8 25.1768L36.6408 19.8641V49.5073L8 44.8645V25.1768Z" fill="#023E8A"/>
</g>
<path d="M15.612 34.2631C15.3465 34.2631 15.1108 34.3153 14.9049 34.4198C14.7021 34.5212 14.5305 34.6689 14.3903 34.8628C14.253 35.0567 14.1486 35.2909 14.077 35.5654C14.0054 35.8399 13.9696 36.1486 13.9696 36.4917C13.9696 36.9542 14.0263 37.3495 14.1397 37.6776C14.256 38.0028 14.435 38.2519 14.6767 38.425C14.9184 38.595 15.2301 38.6801 15.612 38.6801C15.8775 38.6801 16.143 38.6502 16.4086 38.5906C16.6771 38.5309 16.968 38.4459 17.2812 38.3355V39.499C16.9918 39.6184 16.7069 39.7034 16.4265 39.7541C16.146 39.8078 15.8313 39.8347 15.4822 39.8347C14.808 39.8347 14.253 39.6959 13.8175 39.4185C13.3849 39.138 13.0642 38.7472 12.8553 38.246C12.6465 37.7418 12.5421 37.1541 12.5421 36.4828C12.5421 35.9875 12.6092 35.5341 12.7434 35.1223C12.8777 34.7106 13.0746 34.3541 13.3342 34.0528C13.5937 33.7515 13.9144 33.5188 14.2963 33.3547C14.6782 33.1906 15.1167 33.1085 15.612 33.1085C15.9372 33.1085 16.2624 33.1503 16.5876 33.2338C16.9157 33.3144 17.229 33.4263 17.5273 33.5695L17.0798 34.6972C16.8352 34.5809 16.5891 34.4794 16.3414 34.3929C16.0938 34.3064 15.8507 34.2631 15.612 34.2631ZM26.7148 33.2025L25.05 39.7451H23.4703L22.5842 36.3083C22.5663 36.2426 22.5425 36.1427 22.5126 36.0084C22.4828 35.8742 22.4515 35.728 22.4187 35.5699C22.3858 35.4088 22.356 35.2581 22.3292 35.1179C22.3053 34.9747 22.2889 34.8613 22.2799 34.7778C22.271 34.8613 22.2531 34.9732 22.2262 35.1134C22.2024 35.2536 22.174 35.4028 22.1412 35.5609C22.1114 35.719 22.0815 35.8667 22.0517 36.0039C22.0219 36.1412 21.998 36.2456 21.9801 36.3172L21.0985 39.7451H19.5233L17.854 33.2025H19.2189L20.0558 36.7737C20.0797 36.8811 20.1065 37.0094 20.1363 37.1585C20.1692 37.3077 20.2005 37.4643 20.2303 37.6284C20.2631 37.7895 20.2915 37.9461 20.3153 38.0983C20.3422 38.2475 20.3616 38.3773 20.3735 38.4876C20.3884 38.3743 20.4078 38.243 20.4317 38.0938C20.4556 37.9417 20.4809 37.788 20.5078 37.6329C20.5376 37.4748 20.5674 37.3286 20.5973 37.1943C20.6271 37.0601 20.654 36.9512 20.6778 36.8676L21.631 33.2025H22.9422L23.8954 36.8676C23.9163 36.9482 23.9402 37.0571 23.967 37.1943C23.9969 37.3286 24.0267 37.4748 24.0565 37.6329C24.0864 37.791 24.1132 37.9461 24.1371 38.0983C24.164 38.2475 24.1833 38.3773 24.1953 38.4876C24.2162 38.3385 24.2445 38.158 24.2803 37.9461C24.3191 37.7313 24.3594 37.518 24.4011 37.3062C24.4459 37.0944 24.4847 36.9169 24.5175 36.7737L25.3499 33.2025H26.7148Z" fill="#CCD8E8"/>
<g filter="url(#filter1_d_399_3363)">
<rect x="31.3423" y="23.4442" width="35.6578" height="22.3398" fill="#ABBFD8"/>
</g>
<rect x="33.6335" y="25.7354" width="6.37387" height="0.473401" rx="0.236701" fill="#023E8A"/>
<rect x="33.6338" y="26.9663" width="8.71721" height="0.473401" rx="0.236701" fill="#023E8A"/>
<rect x="33.6338" y="28.1971" width="10.3107" height="0.473401" rx="0.236701" fill="#023E8A"/>
<rect x="33.634" y="31.3995" width="0.466355" height="12.0932" rx="0.233177" fill="#023E8A"/>
<rect x="35.593" y="31.3995" width="0.466355" height="12.0932" rx="0.233177" fill="#023E8A"/>
<rect x="37.5518" y="31.3995" width="0.466355" height="12.0932" rx="0.233177" fill="#023E8A"/>
<rect x="39.5103" y="31.3995" width="0.466355" height="12.0932" rx="0.233177" fill="#023E8A"/>
<rect x="41.469" y="31.3995" width="0.466355" height="12.0932" rx="0.233177" fill="#023E8A"/>
<rect x="43.4277" y="31.3995" width="0.466355" height="12.0932" rx="0.233177" fill="#023E8A"/>
<rect x="45.3865" y="31.3995" width="0.466355" height="12.0932" rx="0.233177" fill="#023E8A"/>
<rect x="47.345" y="31.3995" width="0.466355" height="12.0932" rx="0.233177" fill="#023E8A"/>
<rect x="33.6338" y="31.0186" width="14.1772" height="0.476112" rx="0.238056" fill="#023E8A"/>
<rect x="33.634" y="33.0183" width="14.1772" height="0.476112" rx="0.238056" fill="#023E8A"/>
<rect x="33.634" y="35.0179" width="14.1772" height="0.476112" rx="0.238056" fill="#023E8A"/>
<rect x="33.634" y="37.0176" width="14.1772" height="0.476112" rx="0.238056" fill="#023E8A"/>
<rect x="33.634" y="39.0173" width="14.1772" height="0.476112" rx="0.238056" fill="#023E8A"/>
<rect x="33.634" y="41.017" width="14.1772" height="0.476112" rx="0.238056" fill="#023E8A"/>
<rect x="33.634" y="43.0166" width="14.1772" height="0.476112" rx="0.238056" fill="#023E8A"/>
<rect x="50.5315" y="25.7354" width="6.37387" height="0.473401" rx="0.236701" fill="#023E8A"/>
<rect x="50.5312" y="26.9663" width="8.71721" height="0.473401" rx="0.236701" fill="#023E8A"/>
<rect x="50.5312" y="28.1971" width="10.3107" height="0.473401" rx="0.236701" fill="#023E8A"/>
<rect x="50.531" y="31.3995" width="0.466355" height="12.0932" rx="0.233177" fill="#023E8A"/>
<rect x="52.4895" y="31.3995" width="0.466355" height="12.0932" rx="0.233177" fill="#023E8A"/>
<rect x="54.4482" y="31.3995" width="0.466355" height="12.0932" rx="0.233177" fill="#023E8A"/>
<rect x="56.4067" y="31.3995" width="0.466355" height="12.0932" rx="0.233177" fill="#023E8A"/>
<rect x="58.3655" y="31.3995" width="0.466355" height="12.0932" rx="0.233177" fill="#023E8A"/>
<rect x="60.3242" y="31.3995" width="0.466355" height="12.0932" rx="0.233177" fill="#023E8A"/>
<rect x="62.283" y="31.3995" width="0.466355" height="12.0932" rx="0.233177" fill="#023E8A"/>
<rect x="64.2417" y="31.3995" width="0.466355" height="12.0932" rx="0.233177" fill="#023E8A"/>
<rect x="50.5312" y="31.0186" width="14.1772" height="0.476112" rx="0.238056" fill="#023E8A"/>
<rect x="50.531" y="33.0183" width="14.1772" height="0.476112" rx="0.238056" fill="#023E8A"/>
<rect x="50.531" y="35.0179" width="14.1772" height="0.476112" rx="0.238056" fill="#023E8A"/>
<rect x="50.531" y="37.0176" width="14.1772" height="0.476112" rx="0.238056" fill="#023E8A"/>
<rect x="50.531" y="39.0173" width="14.1772" height="0.476112" rx="0.238056" fill="#023E8A"/>
<rect x="50.531" y="41.017" width="14.1772" height="0.476112" rx="0.238056" fill="#023E8A"/>
<rect x="50.531" y="43.0166" width="14.1772" height="0.476112" rx="0.238056" fill="#023E8A"/>
<path d="M16.8273 54.6348C16.7229 54.6348 16.6296 54.6572 16.5476 54.7019C16.4655 54.7452 16.3954 54.8086 16.3373 54.8921C16.2791 54.9757 16.2343 55.0779 16.203 55.1987C16.1732 55.318 16.1582 55.4538 16.1582 55.6059C16.1582 55.8118 16.1844 55.9848 16.2366 56.125C16.2888 56.2653 16.3678 56.3712 16.4737 56.4428C16.5811 56.5144 16.7154 56.5502 16.8765 56.5502C17.0227 56.5502 17.1629 56.53 17.2972 56.4898C17.4329 56.4495 17.5694 56.401 17.7066 56.3443V57.0917C17.5619 57.1558 17.4135 57.202 17.2614 57.2304C17.1107 57.2587 16.9503 57.2729 16.7803 57.2729C16.4253 57.2729 16.1344 57.2028 15.9076 57.0626C15.6824 56.9209 15.5161 56.7247 15.4087 56.4741C15.3028 56.2235 15.2498 55.9326 15.2498 55.6014C15.2498 55.3538 15.2841 55.1271 15.3527 54.9212C15.4228 54.7154 15.525 54.5371 15.6593 54.3864C15.7935 54.2343 15.9591 54.1172 16.156 54.0351C16.3544 53.9516 16.5811 53.9098 16.8362 53.9098C16.9943 53.9098 17.1607 53.9285 17.3352 53.9658C17.5112 54.0016 17.6828 54.0598 17.8498 54.1403L17.5791 54.8362C17.4598 54.7795 17.3389 54.7318 17.2166 54.693C17.0943 54.6542 16.9645 54.6348 16.8273 54.6348ZM21.4076 55.588C21.4076 55.8401 21.377 56.0698 21.3158 56.2772C21.2562 56.483 21.1622 56.6606 21.0339 56.8097C20.9056 56.9589 20.7408 57.0738 20.5394 57.1543C20.338 57.2334 20.0971 57.2729 19.8167 57.2729C19.5422 57.2729 19.3043 57.2334 19.1029 57.1543C18.903 57.0738 18.7382 56.9596 18.6084 56.812C18.4786 56.6628 18.3824 56.4845 18.3197 56.2772C18.2571 56.0698 18.2258 55.8386 18.2258 55.5835C18.2258 55.2434 18.2817 54.9481 18.3936 54.6975C18.5069 54.4454 18.6815 54.2507 18.9172 54.1135C19.1528 53.9747 19.4542 53.9054 19.8211 53.9054C20.1941 53.9054 20.4969 53.9747 20.7296 54.1135C20.9638 54.2522 21.1353 54.4476 21.2442 54.6997C21.3531 54.9518 21.4076 55.2479 21.4076 55.588ZM19.1566 55.588C19.1566 55.7849 19.179 55.9542 19.2237 56.0959C19.2685 56.2377 19.3393 56.3466 19.4363 56.4226C19.5332 56.4987 19.66 56.5367 19.8167 56.5367C19.9793 56.5367 20.1083 56.4987 20.2038 56.4226C20.3007 56.3466 20.3701 56.2377 20.4118 56.0959C20.4551 55.9542 20.4767 55.7849 20.4767 55.588C20.4767 55.2927 20.4275 55.0592 20.3291 54.8877C20.2306 54.7161 20.0613 54.6303 19.8211 54.6303C19.6615 54.6303 19.5325 54.6691 19.434 54.7467C19.3371 54.8243 19.2662 54.9346 19.2215 55.0779C19.1782 55.2211 19.1566 55.3911 19.1566 55.588ZM23.4236 57.2281L22.7546 54.872H22.7344C22.7404 54.9332 22.7464 55.0159 22.7523 55.1204C22.7598 55.2248 22.7665 55.3374 22.7725 55.4582C22.7784 55.5791 22.7814 55.6954 22.7814 55.8073V57.2281H21.9983V53.9568H23.1752L23.8577 56.2794H23.8756L24.5446 53.9568H25.7238V57.2281H24.9116V55.7939C24.9116 55.6909 24.9131 55.5806 24.9161 55.4627C24.9205 55.3434 24.925 55.2315 24.9295 55.1271C24.9355 55.0212 24.9407 54.9376 24.9451 54.8765H24.925L24.2649 57.2281H23.4236ZM27.5609 53.9568C27.9756 53.9568 28.2858 54.0471 28.4917 54.2276C28.699 54.4081 28.8027 54.6647 28.8027 54.9973C28.8027 55.1465 28.7811 55.2897 28.7378 55.4269C28.696 55.5641 28.6267 55.6865 28.5297 55.7939C28.4343 55.9013 28.3067 55.9863 28.1471 56.049C27.989 56.1116 27.7936 56.1429 27.5609 56.1429H27.3125V57.2281H26.4287V53.9568H27.5609ZM27.5407 54.6706H27.3125V55.4224H27.487C27.5631 55.4224 27.634 55.4098 27.6996 55.3844C27.7652 55.3575 27.8174 55.315 27.8562 55.2569C27.8965 55.1972 27.9166 55.1181 27.9166 55.0197C27.9166 54.9167 27.886 54.8332 27.8249 54.7691C27.7637 54.7034 27.669 54.6706 27.5407 54.6706ZM31.3311 57.2281L31.17 56.6151H30.1072L29.9416 57.2281H28.9705L30.0378 53.9434H31.217L32.2978 57.2281H31.3311ZM30.9866 55.8901L30.8456 55.3531C30.8307 55.2949 30.809 55.2121 30.7807 55.1047C30.7524 54.9958 30.724 54.8839 30.6957 54.7691C30.6688 54.6527 30.6479 54.5572 30.633 54.4827C30.6196 54.5572 30.6002 54.6497 30.5749 54.7601C30.551 54.869 30.5256 54.9772 30.4988 55.0846C30.4734 55.192 30.451 55.2815 30.4316 55.3531L30.2907 55.8901H30.9866ZM33.7253 53.9568C34.0222 53.9568 34.2691 53.9934 34.466 54.0665C34.6629 54.1381 34.8106 54.2455 34.909 54.3887C35.009 54.5319 35.0589 54.7101 35.0589 54.9235C35.0589 55.0562 35.0365 55.1771 34.9918 55.2859C34.947 55.3948 34.8829 55.4925 34.7994 55.5791C34.7173 55.6641 34.6189 55.7387 34.504 55.8028L35.4572 57.2281H34.4548L33.7611 56.0378H33.5374V57.2281H32.6535V53.9568H33.7253ZM33.7119 54.6259H33.5374V55.3732H33.703C33.8387 55.3732 33.9498 55.3434 34.0364 55.2837C34.1229 55.224 34.1661 55.1174 34.1661 54.9637C34.1661 54.8578 34.1303 54.775 34.0587 54.7154C33.9871 54.6557 33.8715 54.6259 33.7119 54.6259ZM37.697 57.2281H35.7548V53.9568H37.697V54.6661H36.6386V55.1808H37.6187V55.8901H36.6386V56.5077H37.697V57.2281ZM43.7988 53.9568L42.9933 57.2281H41.9484L41.6351 55.8028C41.6291 55.776 41.6195 55.7305 41.606 55.6663C41.5941 55.6022 41.5799 55.5291 41.5635 55.4471C41.5486 55.365 41.5344 55.2845 41.521 55.2054C41.5091 55.1248 41.5001 55.057 41.4941 55.0018C41.4882 55.057 41.4785 55.1248 41.4651 55.2054C41.4516 55.2845 41.4367 55.365 41.4203 55.4471C41.4054 55.5291 41.3905 55.6022 41.3756 55.6663C41.3621 55.7305 41.3524 55.776 41.3465 55.8028L41.031 57.2281H39.986L39.176 53.9568H40.0285L40.3843 55.597C40.3933 55.6372 40.4052 55.6947 40.4201 55.7693C40.4365 55.8424 40.4529 55.9229 40.4693 56.0109C40.4872 56.0974 40.5037 56.181 40.5186 56.2615C40.5335 56.3421 40.5439 56.4092 40.5499 56.4629C40.5618 56.3704 40.5775 56.2653 40.5969 56.1474C40.6178 56.0296 40.6401 55.9102 40.664 55.7894C40.6894 55.6671 40.7132 55.5537 40.7356 55.4493C40.758 55.3449 40.7774 55.2598 40.7938 55.1942L41.0824 53.9568H41.9014L42.1811 55.1942C42.196 55.2583 42.2146 55.3434 42.237 55.4493C42.2609 55.5537 42.2848 55.6671 42.3086 55.7894C42.334 55.9117 42.3571 56.0325 42.378 56.1519C42.3989 56.2697 42.4145 56.3734 42.425 56.4629C42.4339 56.3883 42.4488 56.2943 42.4697 56.181C42.4906 56.0661 42.5115 55.955 42.5324 55.8476C42.5548 55.7387 42.5719 55.6566 42.5838 55.6014L42.9463 53.9568H43.7988ZM44.2217 57.2281V53.9568H45.11V57.2281H44.2217ZM48.1509 57.2281H45.6023V56.6822L47.0187 54.6706H45.6359V53.9568H48.1151V54.5006L46.6987 56.5144H48.1509V57.2281ZM50.6279 57.2281L50.4668 56.6151H49.4039L49.2383 57.2281H48.2672L49.3346 53.9434H50.5138L51.5945 57.2281H50.6279ZM50.2833 55.8901L50.1423 55.3531C50.1274 55.2949 50.1058 55.2121 50.0774 55.1047C50.0491 54.9958 50.0207 54.8839 49.9924 54.7691C49.9656 54.6527 49.9447 54.5572 49.9298 54.4827C49.9163 54.5572 49.8969 54.6497 49.8716 54.7601C49.8477 54.869 49.8224 54.9772 49.7955 55.0846C49.7701 55.192 49.7478 55.2815 49.7284 55.3531L49.5874 55.8901H50.2833ZM53.0221 53.9568C53.3189 53.9568 53.5658 53.9934 53.7627 54.0665C53.9596 54.1381 54.1073 54.2455 54.2057 54.3887C54.3057 54.5319 54.3556 54.7101 54.3556 54.9235C54.3556 55.0562 54.3333 55.1771 54.2885 55.2859C54.2438 55.3948 54.1796 55.4925 54.0961 55.5791C54.014 55.6641 53.9156 55.7387 53.8007 55.8028L54.7539 57.2281H53.7515L53.0579 56.0378H52.8341V57.2281H51.9503V53.9568H53.0221ZM53.0086 54.6259H52.8341V55.3732H52.9997C53.1354 55.3732 53.2466 55.3434 53.3331 55.2837C53.4196 55.224 53.4629 55.1174 53.4629 54.9637C53.4629 54.8578 53.4271 54.775 53.3555 54.7154C53.2839 54.6557 53.1683 54.6259 53.0086 54.6259ZM57.8283 55.5231C57.8283 55.9035 57.7575 56.2198 57.6158 56.4719C57.4741 56.724 57.2742 56.9134 57.0161 57.0402C56.7595 57.1655 56.4575 57.2281 56.1099 57.2281H55.0515V53.9568H56.1837C56.5358 53.9568 56.8341 54.0172 57.0788 54.1381C57.3234 54.2589 57.5091 54.4357 57.6359 54.6684C57.7642 54.9011 57.8283 55.186 57.8283 55.5231ZM56.9109 55.5545C56.9109 55.3561 56.8841 55.192 56.8304 55.0622C56.7782 54.9309 56.6991 54.8332 56.5932 54.7691C56.4873 54.7034 56.3538 54.6706 56.1927 54.6706H55.9354V56.5032H56.1323C56.4008 56.5032 56.5977 56.4256 56.723 56.2705C56.8483 56.1138 56.9109 55.8752 56.9109 55.5545Z" fill="#023E8A"/>
<defs>
<filter id="filter0_d_399_3363" x="5.70874" y="18.1456" width="33.2234" height="34.2257" filterUnits="userSpaceOnUse" color-interpolation-filters="sRGB">
<feFlood flood-opacity="0" result="BackgroundImageFix"/>
<feColorMatrix in="SourceAlpha" type="matrix" values="0 0 0 0 0 0 0 0 0 0 0 0 0 0 0 0 0 0 127 0" result="hardAlpha"/>
<feOffset dy="0.572816"/>
<feGaussianBlur stdDeviation="1.14563"/>
<feComposite in2="hardAlpha" operator="out"/>
<feColorMatrix type="matrix" values="0 0 0 0 0 0 0 0 0 0 0 0 0 0 0 0 0 0 0.5 0"/>
<feBlend mode="normal" in2="BackgroundImageFix" result="effect1_dropShadow_399_3363"/>
<feBlend mode="normal" in="SourceGraphic" in2="effect1_dropShadow_399_3363" result="shape"/>
</filter>
<filter id="filter1_d_399_3363" x="29.051" y="21.7257" width="40.2402" height="26.9223" filterUnits="userSpaceOnUse" color-interpolation-filters="sRGB">
<feFlood flood-opacity="0" result="BackgroundImageFix"/>
<feColorMatrix in="SourceAlpha" type="matrix" values="0 0 0 0 0 0 0 0 0 0 0 0 0 0 0 0 0 0 127 0" result="hardAlpha"/>
<feOffset dy="0.572816"/>
<feGaussianBlur stdDeviation="1.14563"/>
<feComposite in2="hardAlpha" operator="out"/>
<feColorMatrix type="matrix" values="0 0 0 0 0 0 0 0 0 0 0 0 0 0 0 0 0 0 0.5 0"/>
<feBlend mode="normal" in2="BackgroundImageFix" result="effect1_dropShadow_399_3363"/>
<feBlend mode="normal" in="SourceGraphic" in2="effect1_dropShadow_399_3363" result="shape"/>
</filter>
</defs>
</svg>
