<svg width="100" height="100" viewBox="0 0 200 200" fill="none" xmlns="http://www.w3.org/2000/svg">
<path d="M125 189.583H75.0001C29.7501 189.583 10.4167 170.25 10.4167 125V75C10.4167 29.75 29.7501 10.4167 75.0001 10.4167H125C170.25 10.4167 189.583 29.75 189.583 75V125C189.583 170.25 170.25 189.583 125 189.583ZM75.0001 22.9167C36.5834 22.9167 22.9167 36.5833 22.9167 75V125C22.9167 163.417 36.5834 177.083 75.0001 177.083H125C163.417 177.083 177.083 163.417 177.083 125V75C177.083 36.5833 163.417 22.9167 125 22.9167H75.0001Z" fill="#023E8A"/>
<path d="M99.9994 127.167C98.4161 127.167 96.8328 126.583 95.5828 125.333L70.5828 100.333C68.1661 97.9167 68.1661 93.9168 70.5828 91.5001C72.9994 89.0834 76.9994 89.0834 79.4161 91.5001L99.9994 112.083L120.583 91.5001C122.999 89.0834 126.999 89.0834 129.416 91.5001C131.833 93.9168 131.833 97.9167 129.416 100.333L104.416 125.333C103.166 126.583 101.583 127.167 99.9994 127.167Z" fill="#023E8A"/>
<path d="M100 127.167C96.5833 127.167 93.75 124.333 93.75 120.917V54.2501C93.75 50.8334 96.5833 48.0001 100 48.0001C103.417 48.0001 106.25 50.8334 106.25 54.2501V120.917C106.25 124.417 103.417 127.167 100 127.167Z" fill="#023E8A"/>
<path d="M99.9995 151.917C82.4162 151.917 64.7496 149.084 47.9996 143.5C44.7496 142.417 42.9995 138.834 44.0829 135.584C45.1662 132.334 48.6662 130.5 51.9995 131.667C82.9995 142 117.083 142 148.083 131.667C151.333 130.584 154.916 132.334 156 135.584C157.083 138.834 155.333 142.417 152.083 143.5C135.25 149.167 117.583 151.917 99.9995 151.917Z" fill="#023E8A"/>
</svg>
